<?xml version="1.0" standalone="no"?><svg xmlns="http://www.w3.org/2000/svg" viewBox="0 0 1440 320"><path fill="#0099ff" fill-opacity="1" d="M0,192L26.7,170.7C53.3,149,107,107,160,117.3C213.3,128,267,192,320,229.3C373.3,267,427,277,480,277.3C533.3,277,587,267,640,245.3C693.3,224,747,192,800,170.7C853.3,149,907,139,960,133.3C1013.3,128,1067,128,1120,133.3C1173.3,139,1227,149,1280,138.7C1333.3,128,1387,96,1413,80L1440,64L1440,0L1413.3,0C1386.7,0,1333,0,1280,0C1226.7,0,1173,0,1120,0C1066.7,0,1013,0,960,0C906.7,0,853,0,800,0C746.7,0,693,0,640,0C586.7,0,533,0,480,0C426.7,0,373,0,320,0C266.7,0,213,0,160,0C106.7,0,53,0,27,0L0,0Z"></path></svg>