<?xml version="1.0" standalone="no"?><svg xmlns="http://www.w3.org/2000/svg" viewBox="0 0 1440 320"><path fill="#0099ff" fill-opacity="1" d="M0,192L26.7,176C53.3,160,107,128,160,144C213.3,160,267,224,320,229.3C373.3,235,427,181,480,154.7C533.3,128,587,128,640,128C693.3,128,747,128,800,138.7C853.3,149,907,171,960,160C1013.3,149,1067,107,1120,85.3C1173.3,64,1227,64,1280,74.7C1333.3,85,1387,107,1413,117.3L1440,128L1440,320L1413.3,320C1386.7,320,1333,320,1280,320C1226.7,320,1173,320,1120,320C1066.7,320,1013,320,960,320C906.7,320,853,320,800,320C746.7,320,693,320,640,320C586.7,320,533,320,480,320C426.7,320,373,320,320,320C266.7,320,213,320,160,320C106.7,320,53,320,27,320L0,320Z"></path></svg>